<?xml version="1.0" standalone="no"?><!DOCTYPE svg PUBLIC "-//W3C//DTD SVG 1.1//EN" "http://www.w3.org/Graphics/SVG/1.1/DTD/svg11.dtd"><svg t="1555049326748" class="icon" style="" viewBox="0 0 1024 1024" version="1.1" xmlns="http://www.w3.org/2000/svg" p-id="2474" xmlns:xlink="http://www.w3.org/1999/xlink" width="64" height="64"><defs><style type="text/css"></style></defs><path d="M121.724162 158.92769c-18.421164 0-36.842328 7.585185-49.845503 20.58836-13.003175 13.003175-20.58836 31.424339-20.58836 49.845503 0 18.421164 7.585185 36.842328 20.58836 49.845503 13.003175 13.003175 31.424339 20.58836 49.845503 20.58836 18.421164 0 36.842328-7.585185 49.845503-20.58836 13.003175-13.003175 20.58836-31.424339 20.58836-49.845503 0-18.421164-7.585185-36.842328-20.58836-49.845503C158.56649 166.512875 140.145326 158.92769 121.724162 158.92769z" p-id="2475"></path><path d="M337.360141 300.156614l564.915697 0c39.009524 0 70.433862-31.785538 70.433862-70.433862 0-39.009524-31.785538-70.433862-70.433862-70.433862L337.360141 159.288889c-39.009524 0-70.433862 31.785538-70.433862 70.433862C266.565079 268.371076 298.350617 300.156614 337.360141 300.156614z" p-id="2476"></path><path d="M121.724162 441.385538c-18.421164 0-36.842328 7.585185-49.845503 20.58836-13.003175 13.003175-20.58836 31.424339-20.58836 49.845503 0 18.421164 7.585185 36.842328 20.58836 49.845503 13.003175 13.003175 31.424339 20.58836 49.845503 20.58836 18.421164 0 36.842328-7.585185 49.845503-20.58836 13.003175-13.003175 20.58836-31.424339 20.58836-49.845503 0-18.421164-7.585185-36.842328-20.58836-49.845503C158.56649 448.970723 140.145326 441.385538 121.724162 441.385538z" p-id="2477"></path><path d="M337.360141 582.614462l564.915697 0c39.009524 0 70.433862-31.785538 70.433862-70.433862 0-39.009524-31.785538-70.433862-70.433862-70.433862L337.360141 441.746737c-39.009524 0-70.433862 31.785538-70.433862 70.433862C266.565079 550.828924 298.350617 582.614462 337.360141 582.614462z" p-id="2478"></path><path d="M121.724162 723.843386c-18.421164 0-36.842328 7.585185-49.845503 20.58836-13.003175 13.003175-20.58836 31.424339-20.58836 49.845503 0 18.421164 7.585185 36.842328 20.58836 49.845503 13.003175 13.003175 31.424339 20.58836 49.845503 20.58836 18.421164 0 36.842328-7.585185 49.845503-20.58836 13.003175-13.003175 20.58836-31.424339 20.58836-49.845503 0-18.421164-7.585185-36.842328-20.58836-49.845503C158.56649 731.428571 140.145326 723.843386 121.724162 723.843386z" p-id="2479"></path><path d="M901.914638 723.843386 337.360141 723.843386c-39.009524 0-70.433862 31.424339-70.433862 70.433862 0 39.009524 31.785538 70.433862 70.433862 70.433862l564.915697 0c39.009524 0 70.433862-31.424339 70.433862-70.433862C972.7097 755.267725 940.924162 723.843386 901.914638 723.843386z" p-id="2480"></path></svg>