<?xml version="1.0" standalone="no"?><!DOCTYPE svg PUBLIC "-//W3C//DTD SVG 1.1//EN" "http://www.w3.org/Graphics/SVG/1.1/DTD/svg11.dtd"><svg t="1555049265222" class="icon" style="" viewBox="0 0 1024 1024" version="1.1" xmlns="http://www.w3.org/2000/svg" p-id="1977" xmlns:xlink="http://www.w3.org/1999/xlink" width="64" height="64"><defs><style type="text/css"></style></defs><path d="M951.793371 700.591543H637.205943a62.932114 62.932114 0 1 1 0-125.8496h314.602057a62.946743 62.946743 0 0 1-0.014629 125.8496z m0-251.6992H637.205943a62.902857 62.902857 0 1 1 0-125.834972h314.602057c34.742857 0 62.932114 28.189257 62.932114 62.932115s-28.203886 62.902857-62.946743 62.902857z m0-251.684572H637.205943a62.932114 62.932114 0 1 1 0-125.8496h314.602057a62.932114 62.932114 0 1 1-0.014629 125.8496zM385.506743 1015.208229H133.822171a125.834971 125.834971 0 0 1-125.864228-125.864229V700.591543a125.922743 125.922743 0 0 1 125.864228-125.8496h251.669943a125.893486 125.893486 0 0 1 125.8496 125.8496v188.767086c0 33.3824-13.238857 65.389714-36.849371 88.9856a125.893486 125.893486 0 0 1-88.9856 36.864z m0-566.315886H133.822171a125.805714 125.805714 0 0 1-125.864228-125.834972V134.290286A125.864229 125.864229 0 0 1 133.822171 8.440686h251.669943a125.893486 125.893486 0 0 1 125.8496 125.8496v188.767085a125.805714 125.805714 0 0 1-125.834971 125.834972z m251.6992 377.5488h314.602057a62.932114 62.932114 0 0 1 0 125.8496H637.205943a62.932114 62.932114 0 1 1 0-125.8496z m0 0" p-id="1978"></path></svg>