<?xml version="1.0" standalone="no"?><!DOCTYPE svg PUBLIC "-//W3C//DTD SVG 1.1//EN" "http://www.w3.org/Graphics/SVG/1.1/DTD/svg11.dtd"><svg t="1555653070766" class="icon" style="" viewBox="0 0 1137 1024" version="1.1" xmlns="http://www.w3.org/2000/svg" p-id="1118" xmlns:xlink="http://www.w3.org/1999/xlink" width="71.0625" height="64"><defs><style type="text/css"></style></defs><path d="M887.580444 516.664889c0-167.594667-141.596444-307.2-320.967111-307.2-174.648889 0-320.967111 134.997333-320.967111 307.2s141.653333 307.2 320.967111 307.2c174.648889-4.664889 320.967111-139.662222 320.967111-307.2z m-349.297777 186.197333c-42.439111-4.721778-80.213333-27.989333-108.544-55.921778-9.443556-9.272889-4.721778-18.602667 0-27.875555a30.492444 30.492444 0 0 1 28.387555 0c23.608889 23.324444 51.825778 41.870222 84.935111 46.535111 47.217778 9.272889 94.378667-9.329778 127.431111-46.535111 9.443556-9.386667 18.887111-9.386667 28.330667 0 9.443556 9.272889 9.443556 18.602667 0 27.932444-32.995556 37.205333-84.935111 60.472889-136.874667 60.472889-4.721778-4.664889-14.222222-4.664889-23.608888-4.664889z m61.44 218.737778c18.773333-4.721778 37.717333 4.664889 42.439111 23.267556l4.721778 46.535111c0 13.994667-14.222222 27.932444-37.774223 27.932444L538.339556 1024c-23.608889 0-42.496-9.329778-42.496-23.267556l-4.721778-46.535111c0-13.994667 14.222222-27.932444 37.774222-27.932444l70.769778-4.664889z m415.288889-539.932444c70.826667 27.932444 117.987556 97.735111 122.766222 176.924444 0 162.872889-61.383111 162.872889-146.375111 181.475556-4.721778 4.664889-32.995556 60.529778-108.544 130.332444-75.491556 69.802667-179.313778 102.4-179.313778 102.4-9.443556 4.721778-23.608889 0-28.387556-13.937778-4.721778-9.329778 4.778667-27.989333 14.222223-27.989333 0 0 99.100444-32.540444 165.205333-93.070222 51.882667-46.535111 80.213333-74.467556 89.656889-97.735111V372.280889c-51.882667-144.270222-169.927111-302.478222-382.293334-302.478222-217.144889 0-372.906667 167.537778-372.906666 321.137777v358.4C85.219556 744.675556 4.949333 744.675556 0.284444 558.535111c-4.721778-83.797333 51.882667-153.6 127.431112-181.589333C146.602667 176.924444 307.086222 4.664889 538.339556 0h23.608888c240.696889 4.721778 401.180444 195.527111 453.12 381.667556z" p-id="1119"></path></svg>