<?xml version="1.0" standalone="no"?><!DOCTYPE svg PUBLIC "-//W3C//DTD SVG 1.1//EN" "http://www.w3.org/Graphics/SVG/1.1/DTD/svg11.dtd"><svg t="1555145047507" class="icon" style="" viewBox="0 0 1024 1024" version="1.1" xmlns="http://www.w3.org/2000/svg" p-id="3229" xmlns:xlink="http://www.w3.org/1999/xlink" width="64" height="64"><defs><style type="text/css"></style></defs><path d="M516.096 1007.616c-270.336 0-491.52-221.184-491.52-491.52s221.184-491.52 491.52-491.52 491.52 221.184 491.52 491.52-221.184 491.52-491.52 491.52z m0-942.08c-247.808 0-450.56 202.752-450.56 450.56s202.752 450.56 450.56 450.56 450.56-202.752 450.56-450.56-202.752-450.56-450.56-450.56z" fill="#3EDD8D" p-id="3230"></path><path d="M417.792 729.088c-6.144 0-10.24-2.048-14.336-6.144l-188.416-204.8c-8.192-8.192-6.144-20.48 2.048-28.672 8.192-8.192 20.48-6.144 28.672 2.048l188.416 204.8c8.192 8.192 6.144 20.48-2.048 28.672-6.144 2.048-10.24 4.096-14.336 4.096z" fill="#3EDD8D" p-id="3231"></path><path d="M423.936 724.992c-6.144 0-10.24-2.048-14.336-6.144-8.192-8.192-8.192-20.48 0-28.672l378.88-378.88c8.192-8.192 20.48-8.192 28.672 0s8.192 20.48 0 28.672L438.272 718.848c-4.096 4.096-8.192 6.144-14.336 6.144z" fill="#3EDD8D" p-id="3232"></path></svg>