<?xml version="1.0" standalone="no"?><!DOCTYPE svg PUBLIC "-//W3C//DTD SVG 1.1//EN" "http://www.w3.org/Graphics/SVG/1.1/DTD/svg11.dtd"><svg t="1555653016009" class="icon" style="" viewBox="0 0 1024 1024" version="1.1" xmlns="http://www.w3.org/2000/svg" p-id="6632" xmlns:xlink="http://www.w3.org/1999/xlink" width="64" height="64"><defs><style type="text/css"></style></defs><path d="M979.328 652.992l-21.12-4.672c-0.32-0.96-0.704-1.92-1.152-2.816l11.52-19.2c14.464-23.04 13.12-49.408-3.2-65.792l-18.56-18.56c-16.64-16.64-48.128-17.216-66.752-4.288l-18.56 11.904-2.368-0.96-4.544-20.672c-3.904-21.76-22.912-45.056-50.432-45.056h-26.112c-23.168 0-42.752 17.728-48.704 43.712l-5.44 21.632-4.288 1.792-18.56-11.776c-20.224-14.08-50.816-12.928-67.52 3.84l-18.432 18.432c-16.384 16.384-17.728 42.816-3.52 65.408l12.8 21.312-0.448 1.088-20.224 4.48c-21.888 3.968-45.056 23.04-45.056 50.496v26.176c0 23.04 17.728 42.688 43.776 48.64l21.888 5.504-12.544 20.864c-14.336 22.976-13.056 49.344 3.328 65.728l18.432 18.368c16.64 16.832 48.128 17.472 66.816 4.416l19.328-12.352 4.48 1.92 5.248 20.992c6.08 26.432 25.664 44.16 48.832 44.16h26.112c27.52 0.064 46.528-23.168 50.304-44.16l4.8-21.632 1.92-0.832 17.92 11.456c20.352 14.08 50.944 12.864 67.584-3.84l18.496-18.56c16.384-16.32 17.728-42.752 3.52-65.28l-11.84-19.776 0.64-1.408 21.632-5.44c26.432-6.08 44.16-25.664 44.16-48.832v-26.112c0-27.52-23.168-46.528-44.16-50.304z m-10.816 80.064l-33.984 8.512a23.232 23.232 0 0 0-16.448 15.36c-2.176 6.4-4.8 12.8-8 18.944a23.296 23.296 0 0 0 0.768 22.592l18.432 30.72c2.496 4.032 3.072 7.808 3.2 8.192l-20.48 18.816a12.288 12.288 0 0 1-6.912-2.368l-29.504-18.816a23.232 23.232 0 0 0-23.232-1.024 130.368 130.368 0 0 1-20.096 8.448 23.296 23.296 0 0 0-15.488 17.088l-7.68 34.88c-0.64 3.328-3.52 6.592-4.8 6.912l-25.28 0.192c-0.96-0.576-3.2-3.648-4.352-8.704l-8.32-33.536a23.296 23.296 0 0 0-15.744-16.576 126.336 126.336 0 0 1-21.632-9.152 23.232 23.232 0 0 0-23.424 1.024l-30.976 19.84c-1.28 0.832-3.84 1.856-8.128 1.408l-18.112-17.728c-0.256-1.088 0.32-4.864 3.072-9.28l19.136-31.872a23.232 23.232 0 0 0 0.896-22.272 132.16 132.16 0 0 1-7.296-17.728 23.232 23.232 0 0 0-16.512-15.36l-34.432-8.576c-4.608-1.088-7.68-3.392-8.064-3.52v-26.048c0.256-1.28 3.52-4.224 7.744-4.992l33.536-7.424a23.232 23.232 0 0 0 17.152-15.808c1.856-5.824 4.352-12.096 7.872-19.072a23.296 23.296 0 0 0-0.96-22.272l-19.264-32.256c-2.56-3.968-3.136-7.808-3.264-8.192l20.48-18.816c2.432 0 4.928 0.96 6.912 2.368l30.208 19.2c7.04 4.48 16 4.864 23.36 0.96 6.912-3.648 14.144-6.72 21.632-9.088a23.232 23.232 0 0 0 15.488-16.512l8.512-34.048c1.024-4.608 3.328-7.68 3.52-8.064h26.048c1.28 0.256 4.16 3.52 4.928 7.68l7.552 33.984c1.792 8.064 7.68 14.528 15.488 17.088 6.912 2.24 13.824 5.12 20.48 8.576 7.296 3.84 16.128 3.392 23.104-1.024l30.208-19.264c1.28-0.896 3.84-1.92 8.192-1.536l18.048 17.856c0.256 1.024-0.32 4.864-3.072 9.28l-18.176 30.208a23.232 23.232 0 0 0-0.768 22.592c3.648 7.04 6.4 13.696 8.512 20.48a23.296 23.296 0 0 0 17.152 15.68l34.432 7.616c3.328 0.64 6.592 3.52 6.848 4.736l0.256 25.344c-0.64 0.96-3.712 3.2-8.768 4.352z" fill="#80848F" p-id="6633"></path><path d="M791.04 613.184c-56.32 0-102.208 45.824-102.208 102.144a102.272 102.272 0 0 0 204.48 0c0-56.32-45.824-102.144-102.208-102.144z m0 157.696c-30.72 0-55.68-24.896-55.68-55.552a55.808 55.808 0 0 1 111.488 0 55.68 55.68 0 0 1-55.744 55.552zM415.168 503.36l0.128 0.128a26.048 26.048 0 0 0 1.664 1.088l0.192 0.128 1.856 0.96 0.32 0.192a34.24 34.24 0 0 0 1.472 0.64l0.704 0.32a55.68 55.68 0 0 0 1.088 0.384l0.832 0.256 1.152 0.32a23.872 23.872 0 0 0 1.472 0.32l0.96 0.192a24.832 24.832 0 0 0 2.048 0.256l0.768 0.064a31.36 31.36 0 0 0 1.728 0.064h2.112l0.768-0.128a30.4 30.4 0 0 0 2.048-0.256l0.96-0.192a26.496 26.496 0 0 0 2.56-0.64l0.896-0.256a22.912 22.912 0 0 0 1.088-0.384l0.704-0.32a31.296 31.296 0 0 0 3.648-1.856l0.192-0.064a26.624 26.624 0 0 0 1.728-1.152h0.064l47.808-33.472 78.08 79.488c12.16-14.656 25.536-28.288 39.872-40.832L543.488 436.736l262.464-183.68v171.008a355.2 355.2 0 0 1 57.088-1.792V250.048c0-44.608-33.92-80.832-75.52-80.832H75.968c-41.6 0-75.52 36.224-75.52 80.832v460.224c0 44.608 33.92 80.832 75.52 80.832h417.664a359.616 359.616 0 0 1 1.92-57.024H107.904l259.456-264.128 47.744 33.408z m329.472-277.12L431.744 445.376 118.912 226.304h625.728zM57.6 704V252.992l262.528 183.808-262.528 267.136z" p-id="6634"></path></svg>