<?xml version="1.0" standalone="no"?><!DOCTYPE svg PUBLIC "-//W3C//DTD SVG 1.1//EN" "http://www.w3.org/Graphics/SVG/1.1/DTD/svg11.dtd"><svg t="1555640199997" class="icon" style="" viewBox="0 0 1024 1024" version="1.1" xmlns="http://www.w3.org/2000/svg" p-id="3746" xmlns:xlink="http://www.w3.org/1999/xlink" width="64" height="64"><defs><style type="text/css"></style></defs><path d="M1004.087 972.214l-116.695-116.695c26.448-39.936 42.028-87.713 42.028-139.195 0-139.557-113.131-252.688-252.688-252.688-139.558 0-252.688 113.131-252.688 252.688 0 139.552 113.13 252.688 252.688 252.688 51.486 0 99.258-15.584 139.195-42.023l116.695 116.694c14.522 14.523 38.285 14.523 52.805 0l18.661-18.66c14.527-14.523 14.527-38.285 0-52.806v0zM813.187 781.313c-14.946 31.319-40.148 56.522-71.468 71.469-19.762 9.437-41.626 15.159-64.988 15.159-83.739 0-151.615-67.878-151.615-151.615 0-83.73 67.877-151.615 151.615-151.615 83.737 0 151.615 67.885 151.615 151.615 0 23.363-5.722 45.227-15.161 64.988v0zM347.061 763.647h-123.593c-21.175 0-38.503-17.329-38.503-38.503 0-21.182 17.329-38.51 38.503-38.51h121.51c3.202-36.214 12.22-70.754 26.128-102.678h-147.632c-21.182 0-38.503-17.328-38.503-38.506 0-21.179 17.324-38.507 38.503-38.507h194.597c37.684-46.237 87.601-82.105 144.816-102.684h-339.414c-21.182 0-38.503-17.329-38.503-38.507s17.324-38.507 38.503-38.507h592.765c21.174 0 38.509 17.329 38.509 38.507s-17.335 38.507-38.509 38.507h-29.030c103.812 37.335 183.584 125.009 209.892 233.586v-553.306c0-64.178-52.512-116.685-116.688-116.685h-721.121c-64.176 0-116.683 52.505-116.683 116.685v833.137c0 64.175 52.505 116.683 116.683 116.683h422.958c-123.111-35.84-216.597-141.172-235.19-270.704v0zM223.474 147.543h592.765c21.174 0 38.509 17.329 38.509 38.503 0 21.182-17.335 38.507-38.509 38.507h-592.765c-21.182 0-38.503-17.326-38.503-38.507 0-21.175 17.324-38.503 38.503-38.503v0z" p-id="3747"></path></svg>